PathFileType	4	(X/Y/Z)	 s06c0401.trc
DataRate	CameraRate	NumFrames	NumMarkers	Units	OrigDataRate	OrigDataStartFrame	OrigNumFrames
200	200	6	48	mm	200	251	2000
Frame#	Time	racr			lacr			c7			jug			rlel			rdr			llel			ldr			s2			lic			ric			lasi			rasi			rpsi			lpsi			rgt			lgt			rth1			rth2			rth3			rth4			rlfc			rmfc			rsh1			rsh2			rsh3			rsh4			rlmal			rcal			rtoe			rmt5			lth1			lth2			lth4			lth3			llfc			lmfc			llmal			lcal			lmt5			lsh1			lsh2			lsh3			lsh4			ltoe			SBIKE			LBIKE			RBIKE			
		X1	Y1	Z1	X2	Y2	Z2	X3	Y3	Z3	X4	Y4	Z4	X5	Y5	Z5	X6	Y6	Z6	X7	Y7	Z7	X8	Y8	Z8	X9	Y9	Z9	X10	Y10	Z10	X11	Y11	Z11	X12	Y12	Z12	X13	Y13	Z13	X14	Y14	Z14	X15	Y15	Z15	X16	Y16	Z16	X17	Y17	Z17	X18	Y18	Z18	X19	Y19	Z19	X20	Y20	Z20	X21	Y21	Z21	X22	Y22	Z22	X23	Y23	Z23	X24	Y24	Z24	X25	Y25	Z25	X26	Y26	Z26	X27	Y27	Z27	X28	Y28	Z28	X29	Y29	Z29	X30	Y30	Z30	X31	Y31	Z31	X32	Y32	Z32	X33	Y33	Z33	X34	Y34	Z34	X35	Y35	Z35	X36	Y36	Z36	X37	Y37	Z37	X38	Y38	Z38	X39	Y39	Z39	X40	Y40	Z40	X41	Y41	Z41	X42	Y42	Z42	X43	Y43	Z43	X44	Y44	Z44	X45	Y45	Z45	X46	Y46	Z46	X47	Y47	Z47	X48	Y48	Z48	
251	1.2550	660.448536	1212.372024	-30.275117	665.284494	1193.897701	-354.545149	676.281560	1310.954258	-185.727633	643.223603	1135.438980	-186.010154	507.770371	1032.151766	93.618815	662.810603	945.213408	-27.868538	482.812481	1025.186457	-483.990356	656.365998	930.487969	-405.988145	111.631028	1232.949729	-218.697997	271.240585	1147.126849	-379.755623	235.821061	1193.584284	-54.354409	270.853041	1091.152482	-340.939804	252.058066	1137.529221	-82.821521	156.758128	1270.722605	-198.864742	155.263727	1254.352858	-256.852044	209.531841	1147.479082	-12.814470	205.409871	1076.599860	-401.330989	302.897091	1061.922704	-7.714596	383.159340	1020.752487	-17.170990	426.539978	950.619180	-12.692775	402.070644	1046.300100	-37.363611	474.991343	853.512478	-44.249028	459.016477	837.952987	-158.343479	384.551111	766.473969	-26.761333	333.555601	700.617464	-48.562473	253.573923	663.169502	-52.608181	349.088303	686.188270	-84.941060	182.782820	619.637400	-59.343435	111.033687	618.699315	-111.618807	344.947065	473.933401	-98.385183	248.461724	504.767417	-32.540149	185.832190	948.460314	-425.458967	213.817483	865.842448	-423.857352	250.471455	868.075072	-415.664389	195.861320	778.533210	-415.658740	197.956047	660.305057	-391.205809	208.759762	639.875544	-274.530100	149.579431	287.237620	-384.680443	85.368145	290.832166	-335.780849	226.478272	150.902113	-406.033247	180.707089	552.610770	-416.205695	194.022108	467.789407	-401.152403	163.345997	385.632487	-402.119691	223.663762	468.324645	-375.744059	302.140533	110.468591	-348.314869	-203.889639	870.875523	-211.515859	-48.726173	84.810091	-419.387779	-50.259001	80.189644	-22.094479	
252	1.2600	660.607826	1210.436585	-28.823791	666.727040	1191.960571	-353.135989	678.030648	1309.297954	-184.266945	643.063864	1133.185466	-184.772058	507.323135	1031.253384	94.445986	662.650941	945.695448	-27.159547	483.351566	1024.859852	-483.795682	656.691091	930.130784	-406.063511	113.613111	1235.485716	-219.965221	273.322669	1148.129833	-379.964798	236.372386	1195.705553	-54.984293	271.865985	1092.030336	-340.999530	252.089187	1139.370114	-83.188679	158.714481	1273.138369	-199.981594	157.097453	1256.259812	-256.211004	209.751899	1150.503627	-13.754664	206.507646	1078.301830	-401.904032	302.313609	1063.559396	-7.941289	382.624187	1022.011379	-16.904833	425.687218	951.864729	-12.000882	401.723232	1047.563169	-36.902852	474.192690	854.555654	-43.467190	459.148849	838.829368	-157.590669	384.490303	766.631947	-26.205200	334.543115	699.904125	-48.319158	255.069251	661.677736	-53.071941	350.687048	685.562823	-84.404601	185.000148	616.992674	-60.642040	113.357736	614.318759	-113.187497	351.131770	475.921767	-96.902808	253.251053	504.416457	-32.350358	186.041105	949.777962	-425.914253	214.010602	867.136332	-424.062884	250.590474	869.341392	-415.629674	195.812759	779.797772	-415.788191	198.727625	661.712018	-390.992542	208.707536	641.348752	-273.898076	143.808199	288.812079	-384.222647	79.451905	292.725564	-335.296534	219.850201	151.876932	-405.758730	180.100976	554.007812	-415.587462	191.634622	468.955514	-400.284799	159.395680	387.290785	-401.240092	221.039705	468.961996	-374.700320	295.357082	110.921799	-348.356158	-203.859541	870.908421	-211.345218	-48.736237	84.883211	-419.366696	-50.288723	80.206214	-22.054764	
253	1.2650	660.895029	1208.562564	-27.148043	668.152071	1189.977180	-351.724781	679.680025	1307.620689	-182.796533	642.944378	1130.602680	-183.563513	506.898974	1030.402705	95.340716	662.423236	945.783287	-26.708221	483.853283	1024.481203	-483.622117	657.054138	929.702841	-406.021510	115.570596	1237.760555	-221.286895	275.390672	1148.920220	-380.243975	236.366323	1197.199912	-56.141746	272.927152	1092.665119	-341.124990	251.200734	1140.513162	-84.119227	160.670675	1275.229559	-201.168320	159.061693	1258.072108	-256.914792	209.967734	1153.023996	-14.749937	207.812114	1079.780618	-402.640983	301.518346	1064.654065	-8.841901	381.823121	1023.085254	-16.282811	424.942458	952.548592	-11.319873	401.224632	1048.484267	-36.156685	473.393213	855.064496	-42.529773	459.301283	839.181086	-156.451812	384.401590	766.126519	-25.645763	335.546010	698.737448	-48.191224	256.611185	659.589121	-53.677881	352.244196	684.592459	-84.075201	187.432589	614.013904	-61.957306	115.792293	609.250398	-115.158746	357.271619	477.602051	-95.969492	257.929784	503.813572	-32.268721	186.618448	950.861069	-426.405473	214.648892	868.477617	-424.847047	251.274370	870.553278	-415.495167	196.599594	780.928578	-416.035737	199.724830	662.749808	-390.650738	209.004748	642.631784	-273.246831	137.981130	290.476265	-383.698459	73.569010	294.450422	-334.651710	213.267317	153.107095	-405.381805	179.804446	555.265888	-414.925420	189.416255	470.029899	-399.444519	155.414622	388.999932	-400.294182	218.581623	469.409279	-373.614178	288.601692	111.655644	-348.280623	-203.839357	870.911249	-211.207934	-48.760910	84.894830	-419.334860	-50.286441	80.131462	-22.064053	
254	1.2700	661.085010	1206.755783	-25.633836	669.599691	1187.744028	-350.371973	681.246803	1305.894048	-181.316518	642.557057	1128.058574	-182.285846	506.589202	1029.540551	96.114876	662.044693	945.908245	-26.236247	484.403002	1024.206646	-483.378080	657.331196	929.414544	-405.871552	117.723549	1239.453146	-222.497184	277.439265	1149.454609	-380.529565	237.095683	1198.916372	-56.521984	274.112684	1093.181565	-341.313119	252.066840	1142.169756	-84.304585	162.651634	1276.956877	-202.403380	161.162405	1259.639566	-258.152766	210.105037	1155.023987	-15.644009	209.174591	1080.796608	-403.366256	300.623408	1065.283390	-9.003815	380.611887	1023.773153	-15.098123	424.172579	952.802610	-10.570570	400.643027	1049.013201	-35.151980	472.546503	855.128266	-41.351900	459.476349	838.915019	-154.971094	384.320162	765.147446	-25.111458	336.605594	697.000207	-48.120825	258.220182	656.946379	-54.365824	353.766676	683.154918	-83.923977	189.863255	610.673904	-63.309492	118.430234	603.697001	-117.351280	363.480577	478.931709	-95.097687	262.730209	502.784455	-32.234020	187.701478	951.770089	-426.805282	215.994265	869.389116	-424.821508	252.502773	871.714868	-415.211415	198.172493	781.848861	-416.320278	201.122989	663.498241	-390.254398	209.433371	643.546934	-272.818329	132.274387	292.206922	-383.166167	67.857878	296.390826	-334.118282	206.818518	154.552323	-404.914029	179.761062	556.337105	-414.290114	187.446764	470.844087	-398.633476	151.732942	390.545037	-399.595464	216.303402	469.724050	-372.529280	281.904100	112.492278	-348.117083	-203.811519	870.907368	-211.062954	-48.756974	84.904124	-419.304349	-50.286107	80.143100	-22.010081	
255	1.2750	661.248630	1205.052513	-24.136257	670.198221	1185.721535	-349.895224	682.735315	1304.190885	-179.916011	642.034704	1125.079192	-180.910389	506.308256	1028.766372	96.924626	661.708059	946.180115	-25.796494	484.932684	1023.939318	-483.022417	657.744588	929.271332	-405.990950	119.667878	1240.886261	-223.853340	279.429883	1149.712453	-380.780858	237.429662	1199.810700	-57.447294	275.348351	1093.542350	-341.515892	251.812088	1142.858232	-85.119466	164.428968	1277.786052	-202.422736	163.233545	1260.993821	-259.467631	210.133230	1156.455972	-16.628490	210.770590	1081.614686	-404.217508	299.580860	1065.588828	-9.101054	379.211852	1024.197129	-13.122058	423.506840	952.629775	-9.878168	399.901835	1049.181087	-33.923310	471.608448	854.749448	-40.030099	459.741623	838.045287	-152.620476	384.218504	763.742805	-24.597934	337.608121	694.538745	-48.497304	259.937220	653.709610	-55.021709	355.343498	681.505272	-83.824403	192.557913	606.971876	-64.395723	121.238998	598.195613	-119.176595	369.336235	479.827962	-94.164973	267.448881	501.398670	-32.237777	189.151382	952.426110	-427.226421	217.922422	870.105033	-424.350355	254.236305	872.660970	-414.868077	200.300920	782.579858	-416.642032	202.837819	663.979422	-389.894123	209.951994	644.408521	-272.561123	126.936612	293.971224	-382.810205	62.405835	298.661552	-333.831100	200.460678	155.927501	-404.579767	180.018833	557.209249	-413.839358	185.802237	471.667851	-397.856975	148.508356	391.999442	-399.194165	214.348903	469.938158	-371.516088	275.345125	113.458843	-348.020888	-203.806451	870.855977	-210.983119	-48.780425	84.806853	-419.287669	-50.253338	79.985304	-21.998947	
256	1.2800	661.522624	1203.421210	-22.618347	671.629083	1183.358940	-348.519084	684.180033	1302.526246	-178.604422	641.390362	1122.104659	-179.328927	506.081843	1027.869055	97.644910	661.330774	946.292663	-25.628687	485.342646	1023.866876	-482.665705	657.941562	929.018749	-405.799389	121.418686	1242.365888	-224.961507	281.396716	1149.808811	-381.141645	237.893233	1200.621522	-58.021452	276.529347	1093.555678	-341.513986	252.428151	1143.658364	-85.591757	166.216664	1278.818430	-203.689568	165.179059	1262.047965	-260.688935	210.023891	1157.268513	-17.519758	212.417979	1081.929854	-404.866580	298.454116	1065.672286	-9.241364	378.025512	1024.131272	-11.394447	422.772745	951.999459	-9.177700	399.103070	1048.901068	-32.663213	470.633627	853.963125	-38.661803	460.159420	836.921321	-150.959521	384.146733	761.998486	-24.128790	338.603902	691.921138	-48.514942	261.685183	650.306396	-55.682066	356.975738	679.390633	-83.604747	195.439397	603.119799	-65.390617	124.075038	592.591468	-120.365394	375.128659	480.399404	-93.776806	272.546070	499.683114	-32.419502	191.087109	952.979982	-427.580852	220.110649	870.880157	-424.715179	256.388249	873.594754	-414.449023	203.128979	783.244015	-416.789592	204.761028	664.152676	-389.570200	210.584073	644.939410	-272.274430	121.862918	295.858851	-382.695888	57.213812	301.097008	-333.687938	194.317411	157.484918	-404.335073	180.544591	557.979614	-413.482627	184.526400	472.362390	-397.227625	145.848382	393.349539	-399.006997	212.660797	470.206711	-370.570179	268.782603	114.526976	-347.930412	-203.819466	870.802171	-211.013512	-48.790091	84.656894	-419.219888	-50.274687	79.941909	-21.986853	
